<?xml version="1.0" standalone="no"?>
<!DOCTYPE svg PUBLIC "-//W3C//DTD SVG 20010904//EN"
 "http://www.w3.org/TR/2001/REC-SVG-20010904/DTD/svg10.dtd">
<svg version="1.0" xmlns="http://www.w3.org/2000/svg"
 width="254.000000pt" height="254.000000pt" viewBox="0 0 254.000000 254.000000"
 preserveAspectRatio="xMidYMid meet">
<metadata>
Created by potrace 1.14, written by Peter Selinger 2001-2017
</metadata>
<g transform="translate(0.000000,254.000000) scale(0.100000,-0.100000)"
fill="#000000" stroke="none">
<path d="M1284 2483 c-62 -140 -97 -206 -165 -309 -126 -191 -285 -374 -446
-513 -61 -52 -83 -91 -83 -145 0 -15 5 -17 32 -12 82 16 249 188 498 516 56
74 100 126 97 115 -3 -11 -8 -36 -11 -55 -3 -19 -8 -45 -10 -56 -2 -12 -7 -37
-10 -55 -4 -28 -18 -106 -51 -289 -3 -14 -8 -45 -11 -70 -8 -60 -20 -80 -47
-80 -36 0 -136 -28 -207 -57 -228 -93 -404 -292 -474 -535 -35 -121 -41 -179
-40 -373 0 -200 22 -315 79 -432 39 -78 92 -126 148 -132 133 -14 295 211 417
579 40 119 132 493 166 675 2 11 7 34 11 50 4 17 7 32 8 35 1 3 5 24 9 48 l8
42 219 -4 c209 -5 245 -8 235 -25 -3 -4 -12 -49 -21 -101 -9 -52 -18 -106 -20
-119 -2 -13 -7 -45 -11 -70 -4 -25 -8 -54 -10 -63 -1 -9 -6 -48 -9 -85 -4 -37
-9 -77 -11 -88 -6 -33 -6 -266 1 -315 16 -117 49 -185 119 -240 18 -14 19 -13
12 20 -17 79 -21 143 -21 300 0 144 11 315 20 330 2 3 6 31 10 63 8 80 65 360
74 370 4 4 68 9 142 11 159 4 208 15 243 57 53 63 27 90 -80 83 -97 -6 -274
-11 -274 -8 0 8 30 117 51 184 12 41 24 80 25 85 20 80 119 343 173 458 44 92
59 135 49 138 -2 0 -41 3 -88 6 -82 5 -86 4 -98 -19 -47 -91 -139 -394 -212
-698 -18 -74 -37 -140 -41 -146 -5 -6 -21 -10 -36 -8 -16 1 -115 2 -222 3
l-193 1 7 38 c4 20 9 48 11 62 3 14 7 33 10 42 3 10 7 30 10 45 12 71 78 365
96 428 11 39 35 113 54 166 19 53 34 106 34 117 0 14 -18 32 -57 56 -32 20
-63 36 -71 36 -7 0 -25 -26 -38 -57z m-216 -1165 c-10 -51 -20 -102 -22 -113
-98 -516 -198 -822 -344 -1043 -40 -62 -66 -82 -105 -82 -81 0 -160 128 -187
305 -43 271 28 594 171 781 48 63 170 158 230 179 68 25 221 64 250 65 l25 0
-18 -92z"/>
</g>
</svg>
